<svg xmlns="http://www.w3.org/2000/svg" xmlns:xlink="http://www.w3.org/1999/xlink" viewBox="0 0 64 64" width="64" height="64" preserveAspectRatio="xMidYMid slice" style="width: 100%; height: 100%; transform: translate3d(0px, 0px, 0px); content-visibility: visible;"><defs><clipPath id="__lottie_element_10"><rect width="64" height="64" x="0" y="0"></rect></clipPath><clipPath id="__lottie_element_12"><path d="M0,0 L64,0 L64,64 L0,64z"></path></clipPath></defs><g clip-path="url(#__lottie_element_10)"><g clip-path="url(#__lottie_element_12)" transform="matrix(0.9997785091400146,0.021047117188572884,-0.021047117188572884,0.9997785091400146,0.8514900207519531,-0.8879585266113281)" opacity="1" style="display: block;"><g transform="matrix(1,0,0,1,0,0)" opacity="1" style="display: block;"><g opacity="1" transform="matrix(1,0,0,1,37.374000549316406,35.8120002746582)"><path fill="rgb(250,183,59)" fill-opacity="1" d=" M0,-20.055999755859375 C11.42300033569336,-20.055999755859375 20.683000564575195,-11.07699966430664 20.683000564575195,0 C20.683000564575195,11.07699966430664 11.42300033569336,20.055999755859375 0,20.055999755859375 C-11.42300033569336,20.055999755859375 -20.683000564575195,11.07699966430664 -20.683000564575195,0 C-20.683000564575195,-11.07699966430664 -11.42300033569336,-20.055999755859375 0,-20.055999755859375z"></path></g><g opacity="1" transform="matrix(1,0,0,1,39.96200180053711,35.499000549316406)"><path stroke-linecap="round" stroke-linejoin="miter" fill-opacity="0" stroke-miterlimit="4" stroke="rgb(26,24,30)" stroke-opacity="1" stroke-width="3" d=" M-19.038000106811523,-12.692000389099121 C-15.178999900817871,-17.829999923706055 -9.03600025177002,-21.152999877929688 -2.115000009536743,-21.152999877929688 C9.567000389099121,-21.152999877929688 19.038000106811523,-11.682999610900879 19.038000106811523,0 C19.038000106811523,11.682000160217285 9.567000389099121,21.152999877929688 -2.115000009536743,21.152999877929688 C-8.626999855041504,21.152999877929688 -14.451000213623047,18.209999084472656 -18.33099937438965,13.581999778747559"></path></g><g opacity="1" transform="matrix(1,0,0,1,0,0)"><path stroke-linecap="round" stroke-linejoin="round" fill-opacity="0" stroke="rgb(26,24,30)" stroke-opacity="1" stroke-width="3" d=" M32.64400100708008,14.345999717712402 C32.64400100708008,14.345999717712402 32.64400100708008,8.704999923706055 32.64400100708008,8.704999923706055"></path></g><g opacity="1" transform="matrix(1,0,0,1,0,0)"><path stroke-linecap="round" stroke-linejoin="round" fill-opacity="0" stroke="rgb(26,24,30)" stroke-opacity="1" stroke-width="3" d=" M46.30699920654297,8 C46.30699920654297,8 29.384000778198242,8 29.384000778198242,8"></path></g><g opacity="1" transform="matrix(1,0,0,1,0,0)"><path stroke-linecap="round" stroke-linejoin="round" fill-opacity="0" stroke="rgb(26,24,30)" stroke-opacity="1" stroke-width="3" d=" M42.819000244140625,14.345999717712402 C42.819000244140625,14.345999717712402 42.819000244140625,8.704999923706055 42.819000244140625,8.704999923706055"></path></g><g opacity="1" transform="matrix(1,0,0,1,-0.000011444091796875,0.000011444091796875)"><g opacity="1" transform="matrix(1,0,0,1,37.845001220703125,35.499000549316406)"><path fill="rgb(255,255,255)" fill-opacity="1" d=" M0,-4.020999908447266 C2.2200000286102295,-4.020999908447266 4.019999980926514,-2.2209999561309814 4.019999980926514,-0.0010000000474974513 C4.019999980926514,2.2200000286102295 2.2200000286102295,4.020999908447266 0,4.020999908447266 C-2.2200000286102295,4.020999908447266 -4.019999980926514,2.2200000286102295 -4.019999980926514,-0.0010000000474974513 C-4.019999980926514,-2.2209999561309814 -2.2200000286102295,-4.020999908447266 0,-4.020999908447266z"></path></g><g opacity="1" transform="matrix(1,0,0,1,37.845001220703125,35.499000549316406)"><path stroke-linecap="butt" stroke-linejoin="miter" fill-opacity="0" stroke-miterlimit="4" stroke="rgb(26,24,30)" stroke-opacity="1" stroke-width="2.4" d=" M0,-4.020999908447266 C2.2200000286102295,-4.020999908447266 4.019999980926514,-2.2209999561309814 4.019999980926514,-0.0010000000474974513 C4.019999980926514,2.2200000286102295 2.2200000286102295,4.020999908447266 0,4.020999908447266 C-2.2200000286102295,4.020999908447266 -4.019999980926514,2.2200000286102295 -4.019999980926514,-0.0010000000474974513 C-4.019999980926514,-2.2209999561309814 -2.2200000286102295,-4.020999908447266 0,-4.020999908447266z"></path></g><g opacity="1" transform="matrix(1,0,0,1,43.65999984741211,28.60300064086914)"><path stroke-linecap="round" stroke-linejoin="round" fill-opacity="0" stroke="rgb(26,24,30)" stroke-opacity="1" stroke-width="2.7" d=" M2.6459999084472656,-2.9760000705718994 C2.6459999084472656,-2.9760000705718994 -2.6459999084472656,2.9760000705718994 -2.6459999084472656,2.9760000705718994"></path></g></g></g><g transform="matrix(1,0,0,1,32,32)" opacity="1" style="display: block;"><g opacity="1" transform="matrix(1,0,0,1,0,0)"><path stroke-linecap="round" stroke-linejoin="miter" fill-opacity="0" stroke-miterlimit="4" stroke="rgb(26,24,30)" stroke-opacity="1" stroke-width="2.5" d=" M-24.375,-2.25 C-24.375,-2.25 -8.875,-2.25 -8.875,-2.25"></path></g><g opacity="1" transform="matrix(1,0,0,1,0,0)"><path stroke-linecap="round" stroke-linejoin="miter" fill-opacity="0" stroke-miterlimit="4" stroke="rgb(26,24,30)" stroke-opacity="1" stroke-width="2.5" d=" M-28.75,3.625 C-28.75,3.625 -12.875,3.625 -12.875,3.625"></path></g><g opacity="1" transform="matrix(1,0,0,1,0,0)"><path stroke-linecap="round" stroke-linejoin="miter" fill-opacity="0" stroke-miterlimit="4" stroke="rgb(26,24,30)" stroke-opacity="1" stroke-width="2.5" d=" M-23.125,9.125 C-23.125,9.125 -7.5,9.125 -7.5,9.125"></path></g></g></g></g></svg>