<svg xmlns="http://www.w3.org/2000/svg" xmlns:xlink="http://www.w3.org/1999/xlink" viewBox="0 0 64 64" width="64" height="64" preserveAspectRatio="xMidYMid slice" style="width: 100%; height: 100%; transform: translate3d(0px, 0px, 0px); content-visibility: visible;"><defs><clipPath id="__lottie_element_22"><rect width="64" height="64" x="0" y="0"></rect></clipPath><clipPath id="__lottie_element_24"><path d="M0,0 L64,0 L64,64 L0,64z"></path></clipPath></defs><g clip-path="url(#__lottie_element_22)"><g clip-path="url(#__lottie_element_24)" transform="matrix(1,0,0,1,0,0)" opacity="1" style="display: block;"><g transform="matrix(1,0,0,1,32,32)" opacity="1" style="display: block;"><g opacity="1" transform="matrix(1,0,0,1,0,0)"><path fill="rgb(167,217,245)" fill-opacity="1" d=" M12,-15 C12,-15 -20.625,-14.75 -20.625,-14.75 C-20.625,-14.75 -24,-4.5 -24,-4.5 C-24,-4.5 -25.125,-1.375 -25.125,-1.375 C-25.125,-1.375 -23.125,0.25 -23.125,0.25 C-23.125,0.25 -21.625,1.625 -21.625,1.625 C-21.625,1.625 -18.625,1.625 -18.625,1.625 C-18.625,1.625 -16.375,0.5 -16.375,0.5 C-16.375,0.5 -14.625,-2.5 -14.625,-2.5 C-14.625,-2.5 -13.125,0 -13.125,0 C-13.125,0 -11.125,1.625 -11.125,1.625 C-11.125,1.625 -8.75,2.25 -8.75,2.25 C-8.75,2.25 -6.875,0.875 -6.875,0.875 C-6.875,0.875 -5.125,-0.625 -5.125,-0.625 C-5.125,-0.625 -4.375,-3 -4.375,-3 C-4.375,-3 -2.875,-0.375 -2.875,-0.375 C-2.875,-0.375 -1.75,1.125 -1.75,1.125 C-1.75,1.125 -0.125,2 -0.125,2 C-0.125,2 2.75,2.125 2.75,2.125 C2.75,2.125 5.375,0.25 5.375,0.25 C5.375,0.25 6.125,-1.625 6.125,-1.625 C6.125,-1.625 6.5,-3.25 6.5,-3.25 C6.5,-3.25 8,0.5 8,0.5 C8,0.5 10.125,2.5 10.125,2.5 C10.125,2.5 14,1.25 14,1.25 C14,1.25 16.125,-1.75 16.125,-1.75 C16.125,-1.75 16.75,-4.5 16.75,-4.5 C16.75,-4.5 12,-15 12,-15z"></path><path stroke-linecap="butt" stroke-linejoin="miter" fill-opacity="0" stroke-miterlimit="4" stroke="rgb(26,24,30)" stroke-opacity="1" stroke-width="0" d=" M12,-15 C12,-15 -20.625,-14.75 -20.625,-14.75 C-20.625,-14.75 -24,-4.5 -24,-4.5 C-24,-4.5 -25.125,-1.375 -25.125,-1.375 C-25.125,-1.375 -23.125,0.25 -23.125,0.25 C-23.125,0.25 -21.625,1.625 -21.625,1.625 C-21.625,1.625 -18.625,1.625 -18.625,1.625 C-18.625,1.625 -16.375,0.5 -16.375,0.5 C-16.375,0.5 -14.625,-2.5 -14.625,-2.5 C-14.625,-2.5 -13.125,0 -13.125,0 C-13.125,0 -11.125,1.625 -11.125,1.625 C-11.125,1.625 -8.75,2.25 -8.75,2.25 C-8.75,2.25 -6.875,0.875 -6.875,0.875 C-6.875,0.875 -5.125,-0.625 -5.125,-0.625 C-5.125,-0.625 -4.375,-3 -4.375,-3 C-4.375,-3 -2.875,-0.375 -2.875,-0.375 C-2.875,-0.375 -1.75,1.125 -1.75,1.125 C-1.75,1.125 -0.125,2 -0.125,2 C-0.125,2 2.75,2.125 2.75,2.125 C2.75,2.125 5.375,0.25 5.375,0.25 C5.375,0.25 6.125,-1.625 6.125,-1.625 C6.125,-1.625 6.5,-3.25 6.5,-3.25 C6.5,-3.25 8,0.5 8,0.5 C8,0.5 10.125,2.5 10.125,2.5 C10.125,2.5 14,1.25 14,1.25 C14,1.25 16.125,-1.75 16.125,-1.75 C16.125,-1.75 16.75,-4.5 16.75,-4.5 C16.75,-4.5 12,-15 12,-15z"></path></g></g><g transform="matrix(1,0,0,1,32,32)" opacity="1" style="display: block;"><g opacity="1" transform="matrix(1,0,0,1,0,0)"><path stroke-linecap="round" stroke-linejoin="round" fill-opacity="0" stroke="rgb(26,24,30)" stroke-opacity="1" stroke-width="2.5" d=" M-10.25,-19.312000274658203 C-10.25,-19.312000274658203 -7.875,-24.125 -7.875,-24.125 C-7.875,-24.125 21.75,-24.125 21.75,-24.125 C21.75,-24.125 26.75,-14.25 26.75,-14.25 C26.75,-14.25 26.75,-10.25 22.875,-8.5 C22.875,-8.625 22.875,9.609000205993652 22.875,9.609000205993652 C22.875,9.609000205993652 21.875,11.312000274658203 18.375,11"></path></g></g><g transform="matrix(1,0,0,1,0,0)" opacity="1" style="display: block;"><g opacity="1" transform="matrix(1,0,0,1,12.33899974822998,31.440000534057617)"><path fill="rgb(26,24,30)" fill-opacity="1" d=" M-5.203999996185303,-3.9730000495910645 C-4.577000141143799,-3.9730000495910645 -4.067999839782715,-3.4660000801086426 -4.067999839782715,-2.8389999866485596 C-4.067999839782715,-0.23600000143051147 -2.1549999713897705,1.7039999961853027 0.0010000000474974513,1.7039999961853027 C2.1559998989105225,1.7039999961853027 4.067999839782715,-0.23600000143051147 4.067999839782715,-2.8389999866485596 C4.067999839782715,-3.4660000801086426 4.577000141143799,-3.9730000495910645 5.203999996185303,-3.9730000495910645 C5.830999851226807,-3.9730000495910645 6.339000225067139,-3.4660000801086426 6.339000225067139,-2.8389999866485596 C6.339000225067139,0.828000009059906 3.5920000076293945,3.9730000495910645 0.0010000000474974513,3.9730000495910645 C-3.5910000801086426,3.9730000495910645 -6.339000225067139,0.828000009059906 -6.339000225067139,-2.8389999866485596 C-6.339000225067139,-3.4660000801086426 -5.830999851226807,-3.9730000495910645 -5.203999996185303,-3.9730000495910645z"></path><path stroke-linecap="round" stroke-linejoin="miter" fill-opacity="0" stroke-miterlimit="4" stroke="rgb(26,24,30)" stroke-opacity="1" stroke-width="0.4" d=" M-5.203999996185303,-3.9730000495910645 C-4.577000141143799,-3.9730000495910645 -4.067999839782715,-3.4660000801086426 -4.067999839782715,-2.8389999866485596 C-4.067999839782715,-0.23600000143051147 -2.1549999713897705,1.7039999961853027 0.0010000000474974513,1.7039999961853027 C2.1559998989105225,1.7039999961853027 4.067999839782715,-0.23600000143051147 4.067999839782715,-2.8389999866485596 C4.067999839782715,-3.4660000801086426 4.577000141143799,-3.9730000495910645 5.203999996185303,-3.9730000495910645 C5.830999851226807,-3.9730000495910645 6.339000225067139,-3.4660000801086426 6.339000225067139,-2.8389999866485596 C6.339000225067139,0.828000009059906 3.5920000076293945,3.9730000495910645 0.0010000000474974513,3.9730000495910645 C-3.5910000801086426,3.9730000495910645 -6.339000225067139,0.828000009059906 -6.339000225067139,-2.8389999866485596 C-6.339000225067139,-3.4660000801086426 -5.830999851226807,-3.9730000495910645 -5.203999996185303,-3.9730000495910645z"></path></g><g opacity="1" transform="matrix(1,0,0,1,22.746000289916992,31.440000534057617)"><path fill="rgb(26,24,30)" fill-opacity="1" d=" M-5.203999996185303,-3.9730000495910645 C-4.577000141143799,-3.9730000495910645 -4.067999839782715,-3.4660000801086426 -4.067999839782715,-2.8389999866485596 C-4.067999839782715,-0.23600000143051147 -2.1549999713897705,1.7029999494552612 0.0010000000474974513,1.7029999494552612 C2.1559998989105225,1.7029999494552612 4.067999839782715,-0.23600000143051147 4.067999839782715,-2.8389999866485596 C4.067999839782715,-3.4660000801086426 4.577000141143799,-3.9730000495910645 5.203999996185303,-3.9730000495910645 C5.830999851226807,-3.9730000495910645 6.339000225067139,-3.4660000801086426 6.339000225067139,-2.8389999866485596 C6.339000225067139,0.8289999961853027 3.5929999351501465,3.9730000495910645 0.0010000000474974513,3.9730000495910645 C-3.5910000801086426,3.9730000495910645 -6.339000225067139,0.8289999961853027 -6.339000225067139,-2.8389999866485596 C-6.339000225067139,-3.4660000801086426 -5.830999851226807,-3.9730000495910645 -5.203999996185303,-3.9730000495910645z"></path><path stroke-linecap="round" stroke-linejoin="miter" fill-opacity="0" stroke-miterlimit="4" stroke="rgb(26,24,30)" stroke-opacity="1" stroke-width="0.4" d=" M-5.203999996185303,-3.9730000495910645 C-4.577000141143799,-3.9730000495910645 -4.067999839782715,-3.4660000801086426 -4.067999839782715,-2.8389999866485596 C-4.067999839782715,-0.23600000143051147 -2.1549999713897705,1.7029999494552612 0.0010000000474974513,1.7029999494552612 C2.1559998989105225,1.7029999494552612 4.067999839782715,-0.23600000143051147 4.067999839782715,-2.8389999866485596 C4.067999839782715,-3.4660000801086426 4.577000141143799,-3.9730000495910645 5.203999996185303,-3.9730000495910645 C5.830999851226807,-3.9730000495910645 6.339000225067139,-3.4660000801086426 6.339000225067139,-2.8389999866485596 C6.339000225067139,0.8289999961853027 3.5929999351501465,3.9730000495910645 0.0010000000474974513,3.9730000495910645 C-3.5910000801086426,3.9730000495910645 -6.339000225067139,0.8289999961853027 -6.339000225067139,-2.8389999866485596 C-6.339000225067139,-3.4660000801086426 -5.830999851226807,-3.9730000495910645 -5.203999996185303,-3.9730000495910645z"></path></g><g opacity="1" transform="matrix(1,0,0,1,33.15299987792969,31.440000534057617)"><path fill="rgb(26,24,30)" fill-opacity="1" d=" M-5.203000068664551,-3.9730000495910645 C-4.576000213623047,-3.9730000495910645 -4.067999839782715,-3.4660000801086426 -4.067999839782715,-2.8389999866485596 C-4.067999839782715,-0.23600000143051147 -2.1549999713897705,1.7039999961853027 0.0010000000474974513,1.7039999961853027 C2.1559998989105225,1.7039999961853027 4.068999767303467,-0.23600000143051147 4.068999767303467,-2.8389999866485596 C4.068999767303467,-3.4660000801086426 4.577000141143799,-3.9730000495910645 5.203999996185303,-3.9730000495910645 C5.830999851226807,-3.9730000495910645 6.339000225067139,-3.4660000801086426 6.339000225067139,-2.8389999866485596 C6.339000225067139,0.828000009059906 3.5920000076293945,3.9730000495910645 0.0010000000474974513,3.9730000495910645 C-3.5910000801086426,3.9730000495910645 -6.339000225067139,0.828000009059906 -6.339000225067139,-2.8389999866485596 C-6.339000225067139,-3.4660000801086426 -5.829999923706055,-3.9730000495910645 -5.203000068664551,-3.9730000495910645z"></path><path stroke-linecap="round" stroke-linejoin="miter" fill-opacity="0" stroke-miterlimit="4" stroke="rgb(26,24,30)" stroke-opacity="1" stroke-width="0.4" d=" M-5.203000068664551,-3.9730000495910645 C-4.576000213623047,-3.9730000495910645 -4.067999839782715,-3.4660000801086426 -4.067999839782715,-2.8389999866485596 C-4.067999839782715,-0.23600000143051147 -2.1549999713897705,1.7039999961853027 0.0010000000474974513,1.7039999961853027 C2.1559998989105225,1.7039999961853027 4.068999767303467,-0.23600000143051147 4.068999767303467,-2.8389999866485596 C4.068999767303467,-3.4660000801086426 4.577000141143799,-3.9730000495910645 5.203999996185303,-3.9730000495910645 C5.830999851226807,-3.9730000495910645 6.339000225067139,-3.4660000801086426 6.339000225067139,-2.8389999866485596 C6.339000225067139,0.828000009059906 3.5920000076293945,3.9730000495910645 0.0010000000474974513,3.9730000495910645 C-3.5910000801086426,3.9730000495910645 -6.339000225067139,0.828000009059906 -6.339000225067139,-2.8389999866485596 C-6.339000225067139,-3.4660000801086426 -5.829999923706055,-3.9730000495910645 -5.203000068664551,-3.9730000495910645z"></path></g><g opacity="1" transform="matrix(1,0,0,1,43.560001373291016,31.440000534057617)"><path fill="rgb(26,24,30)" fill-opacity="1" d=" M-5.203999996185303,-3.9730000495910645 C-4.577000141143799,-3.9730000495910645 -4.068999767303467,-3.4660000801086426 -4.068999767303467,-2.8389999866485596 C-4.068999767303467,-0.23600000143051147 -2.1549999713897705,1.7029999494552612 0.0010000000474974513,1.7029999494552612 C2.1559998989105225,1.7029999494552612 4.067999839782715,-0.23600000143051147 4.067999839782715,-2.8389999866485596 C4.067999839782715,-3.4660000801086426 4.577000141143799,-3.9730000495910645 5.203999996185303,-3.9730000495910645 C5.830999851226807,-3.9730000495910645 6.339000225067139,-3.4660000801086426 6.339000225067139,-2.8389999866485596 C6.339000225067139,0.8289999961853027 3.5920000076293945,3.9730000495910645 0.0010000000474974513,3.9730000495910645 C-3.5910000801086426,3.9730000495910645 -6.339000225067139,0.8289999961853027 -6.339000225067139,-2.8389999866485596 C-6.339000225067139,-3.4660000801086426 -5.830999851226807,-3.9730000495910645 -5.203999996185303,-3.9730000495910645z"></path><path stroke-linecap="round" stroke-linejoin="miter" fill-opacity="0" stroke-miterlimit="4" stroke="rgb(26,24,30)" stroke-opacity="1" stroke-width="0.4" d=" M-5.203999996185303,-3.9730000495910645 C-4.577000141143799,-3.9730000495910645 -4.068999767303467,-3.4660000801086426 -4.068999767303467,-2.8389999866485596 C-4.068999767303467,-0.23600000143051147 -2.1549999713897705,1.7029999494552612 0.0010000000474974513,1.7029999494552612 C2.1559998989105225,1.7029999494552612 4.067999839782715,-0.23600000143051147 4.067999839782715,-2.8389999866485596 C4.067999839782715,-3.4660000801086426 4.577000141143799,-3.9730000495910645 5.203999996185303,-3.9730000495910645 C5.830999851226807,-3.9730000495910645 6.339000225067139,-3.4660000801086426 6.339000225067139,-2.8389999866485596 C6.339000225067139,0.8289999961853027 3.5920000076293945,3.9730000495910645 0.0010000000474974513,3.9730000495910645 C-3.5910000801086426,3.9730000495910645 -6.339000225067139,0.8289999961853027 -6.339000225067139,-2.8389999866485596 C-6.339000225067139,-3.4660000801086426 -5.830999851226807,-3.9730000495910645 -5.203999996185303,-3.9730000495910645z"></path></g><g opacity="1" transform="matrix(1,0,0,1,27.950000762939453,45.25400161743164)"><path fill="rgb(26,24,30)" fill-opacity="1" d=" M-15.895000457763672,-10.975000381469727 C-15.895000457763672,-10.975000381469727 -15.895000457763672,8.704000473022461 -15.895000457763672,8.704000473022461 C-15.895000457763672,8.704000473022461 15.895000457763672,8.704000473022461 15.895000457763672,8.704000473022461 C15.895000457763672,8.704000473022461 15.895000457763672,-10.975000381469727 15.895000457763672,-10.975000381469727 C15.895000457763672,-10.975000381469727 18.165000915527344,-10.975000381469727 18.165000915527344,-10.975000381469727 C18.165000915527344,-10.975000381469727 18.165000915527344,8.704000473022461 18.165000915527344,8.704000473022461 C18.165000915527344,9.958000183105469 17.14900016784668,10.975000381469727 15.895000457763672,10.975000381469727 C15.895000457763672,10.975000381469727 -15.895000457763672,10.975000381469727 -15.895000457763672,10.975000381469727 C-17.14900016784668,10.975000381469727 -18.165000915527344,9.958000183105469 -18.165000915527344,8.704000473022461 C-18.165000915527344,8.704000473022461 -18.165000915527344,-10.975000381469727 -18.165000915527344,-10.975000381469727 C-18.165000915527344,-10.975000381469727 -15.895000457763672,-10.975000381469727 -15.895000457763672,-10.975000381469727z"></path><path stroke-linecap="butt" stroke-linejoin="miter" fill-opacity="0" stroke-miterlimit="4" stroke="rgb(26,24,30)" stroke-opacity="1" stroke-width="0.4" d=" M-15.895000457763672,-10.975000381469727 C-15.895000457763672,-10.975000381469727 -15.895000457763672,8.704000473022461 -15.895000457763672,8.704000473022461 C-15.895000457763672,8.704000473022461 15.895000457763672,8.704000473022461 15.895000457763672,8.704000473022461 C15.895000457763672,8.704000473022461 15.895000457763672,-10.975000381469727 15.895000457763672,-10.975000381469727 C15.895000457763672,-10.975000381469727 18.165000915527344,-10.975000381469727 18.165000915527344,-10.975000381469727 C18.165000915527344,-10.975000381469727 18.165000915527344,8.704000473022461 18.165000915527344,8.704000473022461 C18.165000915527344,9.958000183105469 17.14900016784668,10.975000381469727 15.895000457763672,10.975000381469727 C15.895000457763672,10.975000381469727 -15.895000457763672,10.975000381469727 -15.895000457763672,10.975000381469727 C-17.14900016784668,10.975000381469727 -18.165000915527344,9.958000183105469 -18.165000915527344,8.704000473022461 C-18.165000915527344,8.704000473022461 -18.165000915527344,-10.975000381469727 -18.165000915527344,-10.975000381469727 C-18.165000915527344,-10.975000381469727 -15.895000457763672,-10.975000381469727 -15.895000457763672,-10.975000381469727z"></path></g><g opacity="1" transform="matrix(1,0,0,1,27.948999404907227,22.545000076293945)"><path fill="rgb(26,24,30)" fill-opacity="1" d=" M19.743000030517578,6.432000160217285 C19.743000030517578,6.432000160217285 16.03499984741211,-4.160999774932861 16.03499984741211,-4.160999774932861 C16.03499984741211,-4.160999774932861 -16.03499984741211,-4.160999774932861 -16.03499984741211,-4.160999774932861 C-16.03499984741211,-4.160999774932861 -19.743000030517578,6.432000160217285 -19.743000030517578,6.432000160217285 C-19.743000030517578,6.432000160217285 -21.88599967956543,5.682000160217285 -21.88599967956543,5.682000160217285 C-21.88599967956543,5.682000160217285 -18.17799949645996,-4.910999774932861 -18.17799949645996,-4.910999774932861 C-17.858999252319336,-5.822000026702881 -17,-6.432000160217285 -16.03499984741211,-6.432000160217285 C-16.03499984741211,-6.432000160217285 16.03499984741211,-6.432000160217285 16.03499984741211,-6.432000160217285 C17,-6.432000160217285 17.860000610351562,-5.822000026702881 18.179000854492188,-4.910999774932861 C18.179000854492188,-4.910999774932861 21.88599967956543,5.682000160217285 21.88599967956543,5.682000160217285 C21.88599967956543,5.682000160217285 19.743000030517578,6.432000160217285 19.743000030517578,6.432000160217285z"></path><path stroke-linecap="butt" stroke-linejoin="miter" fill-opacity="0" stroke-miterlimit="4" stroke="rgb(26,24,30)" stroke-opacity="1" stroke-width="0.4" d=" M19.743000030517578,6.432000160217285 C19.743000030517578,6.432000160217285 16.03499984741211,-4.160999774932861 16.03499984741211,-4.160999774932861 C16.03499984741211,-4.160999774932861 -16.03499984741211,-4.160999774932861 -16.03499984741211,-4.160999774932861 C-16.03499984741211,-4.160999774932861 -19.743000030517578,6.432000160217285 -19.743000030517578,6.432000160217285 C-19.743000030517578,6.432000160217285 -21.88599967956543,5.682000160217285 -21.88599967956543,5.682000160217285 C-21.88599967956543,5.682000160217285 -18.17799949645996,-4.910999774932861 -18.17799949645996,-4.910999774932861 C-17.858999252319336,-5.822000026702881 -17,-6.432000160217285 -16.03499984741211,-6.432000160217285 C-16.03499984741211,-6.432000160217285 16.03499984741211,-6.432000160217285 16.03499984741211,-6.432000160217285 C17,-6.432000160217285 17.860000610351562,-5.822000026702881 18.179000854492188,-4.910999774932861 C18.179000854492188,-4.910999774932861 21.88599967956543,5.682000160217285 21.88599967956543,5.682000160217285 C21.88599967956543,5.682000160217285 19.743000030517578,6.432000160217285 19.743000030517578,6.432000160217285z"></path></g><g opacity="1" transform="matrix(1,0,0,1,27.948999404907227,48.8489990234375)"><path fill="rgb(26,24,30)" fill-opacity="1" d=" M2.6489999294281006,6.244999885559082 C2.6489999294281006,6.244999885559082 2.6489999294281006,-3.9739999771118164 2.6489999294281006,-3.9739999771118164 C2.6489999294281006,-3.9739999771118164 -2.6489999294281006,-3.9739999771118164 -2.6489999294281006,-3.9739999771118164 C-2.6489999294281006,-3.9739999771118164 -2.6489999294281006,6.244999885559082 -2.6489999294281006,6.244999885559082 C-2.6489999294281006,6.244999885559082 -4.920000076293945,6.244999885559082 -4.920000076293945,6.244999885559082 C-4.920000076293945,6.244999885559082 -4.920000076293945,-3.9739999771118164 -4.920000076293945,-3.9739999771118164 C-4.920000076293945,-5.228000164031982 -3.9030001163482666,-6.244999885559082 -2.6489999294281006,-6.244999885559082 C-2.6489999294281006,-6.244999885559082 2.6489999294281006,-6.244999885559082 2.6489999294281006,-6.244999885559082 C3.9030001163482666,-6.244999885559082 4.920000076293945,-5.228000164031982 4.920000076293945,-3.9739999771118164 C4.920000076293945,-3.9739999771118164 4.920000076293945,6.244999885559082 4.920000076293945,6.244999885559082 C4.920000076293945,6.244999885559082 2.6489999294281006,6.244999885559082 2.6489999294281006,6.244999885559082z"></path><path stroke-linecap="butt" stroke-linejoin="miter" fill-opacity="0" stroke-miterlimit="4" stroke="rgb(26,24,30)" stroke-opacity="1" stroke-width="0.4" d=" M2.6489999294281006,6.244999885559082 C2.6489999294281006,6.244999885559082 2.6489999294281006,-3.9739999771118164 2.6489999294281006,-3.9739999771118164 C2.6489999294281006,-3.9739999771118164 -2.6489999294281006,-3.9739999771118164 -2.6489999294281006,-3.9739999771118164 C-2.6489999294281006,-3.9739999771118164 -2.6489999294281006,6.244999885559082 -2.6489999294281006,6.244999885559082 C-2.6489999294281006,6.244999885559082 -4.920000076293945,6.244999885559082 -4.920000076293945,6.244999885559082 C-4.920000076293945,6.244999885559082 -4.920000076293945,-3.9739999771118164 -4.920000076293945,-3.9739999771118164 C-4.920000076293945,-5.228000164031982 -3.9030001163482666,-6.244999885559082 -2.6489999294281006,-6.244999885559082 C-2.6489999294281006,-6.244999885559082 2.6489999294281006,-6.244999885559082 2.6489999294281006,-6.244999885559082 C3.9030001163482666,-6.244999885559082 4.920000076293945,-5.228000164031982 4.920000076293945,-3.9739999771118164 C4.920000076293945,-3.9739999771118164 4.920000076293945,6.244999885559082 4.920000076293945,6.244999885559082 C4.920000076293945,6.244999885559082 2.6489999294281006,6.244999885559082 2.6489999294281006,6.244999885559082z"></path></g><g opacity="1" transform="matrix(1,0,0,1,27.924999237060547,27.75)"><path fill="rgb(26,24,30)" fill-opacity="1" d=" M20.222999572753906,1.0640000104904175 C20.222999572753906,1.0640000104904175 -20.222999572753906,1.0640000104904175 -20.222999572753906,1.0640000104904175 C-20.222999572753906,1.0640000104904175 -20.222999572753906,-1.0640000104904175 -20.222999572753906,-1.0640000104904175 C-20.222999572753906,-1.0640000104904175 20.222999572753906,-1.0640000104904175 20.222999572753906,-1.0640000104904175 C20.222999572753906,-1.0640000104904175 20.222999572753906,1.0640000104904175 20.222999572753906,1.0640000104904175z"></path></g></g></g></g></svg>